<svg xmlns="http://www.w3.org/2000/svg"><style>:root svg:not(:target){display:none}</style><svg viewBox="0 0 20 20" fill="none" id="cross"><path d="M2 18L10 10M10 10L18 2M10 10L18 18M10 10L2 2" stroke="#000000" stroke-linecap="round" stroke-linejoin="round"></path></svg><svg viewBox="0 0 512 512" id="pencil"><path d="M376 33.5c-8.4 1.7-16.7 5.4-24.4 10.9-3.3 2.5-68.3 66.7-144.3 142.8C59.1 335.6 62.7 331.8 56.6 348.1 53.9 355.3 32 453.9 32 458.8c0 10.9 10.4 21.2 21.2 21.2 2.3 0 32.8-6.4 84.1-17.6 22.1-4.8 32.2-8.4 42.3-14.9 7.3-4.7 281.4-278 288-287.1 14.3-19.8 16.2-44.1 5.3-66.4-3.9-7.9-5.6-9.9-25.3-29.6C427.8 44.6 426 43 418 39.1c-13.8-6.7-27.4-8.5-42-5.6zm33 157-16 16-43.7-43.7-43.8-43.8 16-16 16-16 43.7 43.7 43.8 43.8-16 16zM120.2 391.7c22.5 22.5 40.8 41.1 40.8 41.5 0 1.5-12.1 4.9-37.3 10.4l-26.8 5.7-16-15.9c-8.8-8.7-16.5-16.7-17-17.6-1.8-3.3 12.4-64.8 15-64.8.3 0 18.9 18.3 41.3 40.7z"></path></svg></svg>